HIERARCHY
ROOT Hips
{
	OFFSET -3.958830 18.904000 13.208200
	CHANNELS 6 Xposition Yposition Zposition Zrotation Yrotation Xrotation 
	JOINT LHipJoint
	{
		OFFSET 0.000000 0.000000 0.000000
		CHANNELS 3 Zrotation Yrotation Xrotation
		JOINT LeftUpLeg
		{
			OFFSET 1.800000 -1.400000 0.085000
			CHANNELS 3 Zrotation Yrotation Xrotation
			JOINT LeftLeg
			{
				OFFSET 2.215000 -6.000000 0.000000
				CHANNELS 3 Zrotation Yrotation Xrotation
				JOINT LeftFoot
				{
					OFFSET 2.500000 -6.900000 0.000000
					CHANNELS 3 Zrotation Yrotation Xrotation
					JOINT LeftToeBase
					{
						OFFSET 0.200000 -0.500000 1.950000
						CHANNELS 3 Zrotation Yrotation Xrotation
						End Site
						{
							OFFSET 0.000000 0.000000 0.000000
						}
					}
				}
			}
		}
	}
	JOINT RHipJoint
	{
		OFFSET 0.000000 0.000000 0.000000
		CHANNELS 3 Zrotation Yrotation Xrotation
		JOINT RightUpLeg
		{
			OFFSET -1.800000 -1.400000 0.085000
			CHANNELS 3 Zrotation Yrotation Xrotation
			JOINT RightLeg
			{
				OFFSET -2.215000 -6.000000 0.000000
				CHANNELS 3 Zrotation Yrotation Xrotation
				JOINT RightFoot
				{
					OFFSET -2.500000 -6.900000 0.000000
					CHANNELS 3 Zrotation Yrotation Xrotation
					JOINT RightToeBase
					{
						OFFSET -0.200000 -0.500000 1.950000
						CHANNELS 3 Zrotation Yrotation Xrotation
						End Site
						{
							OFFSET 0.000000 0.000000 0.000000
						}
					}
				}
			}
		}
	}
	JOINT LowerBack
	{
		OFFSET 0.000000 0.000000 0.000000
		CHANNELS 3 Zrotation Yrotation Xrotation
		JOINT Spine
		{
			OFFSET -0.087000 1.940000 -0.288900
			CHANNELS 3 Zrotation Yrotation Xrotation
			JOINT Spine1
			{
				OFFSET 0.000000 1.950000 0.060000
				CHANNELS 3 Zrotation Yrotation Xrotation
				JOINT Neck
				{
					OFFSET 0.000000 0.000000 0.000000
					CHANNELS 3 Zrotation Yrotation Xrotation
					JOINT Neck1
					{
						OFFSET 0.000000 1.600000 0.340000
						CHANNELS 3 Zrotation Yrotation Xrotation
						JOINT Head
						{
							OFFSET 0.000000 1.667000 -0.240000
							CHANNELS 3 Zrotation Yrotation Xrotation
							End Site
							{
								OFFSET 0.000000 0.000000 0.000000
							}
						}
					}
				}
				JOINT LeftShoulder
				{
					OFFSET 0.000000 0.000000 0.000000
					CHANNELS 3 Zrotation Yrotation Xrotation
					JOINT LeftArm
					{
						OFFSET 2.700000 1.550000 -0.730000
						CHANNELS 3 Zrotation Yrotation Xrotation
						JOINT LeftForeArm
						{
							OFFSET 5.450000 0.000000 0.000000
							CHANNELS 3 Zrotation Yrotation Xrotation
							JOINT LeftHand
							{
								OFFSET 3.450000 0.000000 0.000000
								CHANNELS 3 Zrotation Yrotation Xrotation
								JOINT LeftHandIndex1
								{
									OFFSET 0.750000 0.000000 0.000000
									CHANNELS 3 Zrotation Yrotation Xrotation
									End Site
									{
										OFFSET 0.000000 0.000000 0.000000
									}
								}
							}
						}
					}
				}
				JOINT RightShoulder
				{
					OFFSET 0.000000 0.000000 0.000000
					CHANNELS 3 Zrotation Yrotation Xrotation
					JOINT RightArm
					{
						OFFSET -2.700000 1.550000 -0.730000
						CHANNELS 3 Zrotation Yrotation Xrotation
						JOINT RightForeArm
						{
							OFFSET -5.450000 0.000000 0.000000
							CHANNELS 3 Zrotation Yrotation Xrotation
							JOINT RightHand
							{
								OFFSET -3.450000 0.000000 0.000000
								CHANNELS 3 Zrotation Yrotation Xrotation
								JOINT RightHandIndex1
								{
									OFFSET -0.750000 0.000000 0.000000
									CHANNELS 3 Zrotation Yrotation Xrotation
									End Site
									{
										OFFSET 0.000000 0.000000 0.000000
									}
								}
							}
						}
					}
				}
			}
		}
	}
}
MOTION
Frames: 4
Frame Time: 0.016667
-1.926270 18.547770 2.467790 -5.008409 -11.795362 -15.317796 -15.589422 14.678598 3.240804 23.170439 2.071020 -5.847853 -6.942239 7.346892 10.086199 -1.189161 6.919240 2.453725 -1.077680 -1.459710 -1.182680 17.705306 -10.055859 2.713098 -1.229072 -1.883338 10.560377 -4.537810 -5.163236 18.732314 -0.321089 -5.348836 2.849684 -0.407980 1.629420 -0.094620 -1.907376 -5.493992 -8.033831 -10.274563 4.800745 27.413546 8.008693 6.231275 -5.345804 1.685916 -10.241227 -18.444715 -28.442685 9.790698 34.517960 7.602760 -4.870180 -1.501820 11.355682 -5.989099 16.367201 -38.177340 1.474507 -0.571116 108.211655 -43.329683 -67.559718 -4.566324 1.766145 1.027590 0.598090 -0.698640 0.027020 -9.537337 15.093956 5.252767 6.973987 1.301509 -16.075419 -142.334955 -8.454896 12.301200 1.669984 -2.066079 -1.379590 1.284400 1.345940 -0.081190 
-1.930480 18.562480 2.382500 -5.075438 -7.831353 -18.397843 -15.700395 14.716142 3.092890 22.976229 2.305604 -4.954355 -6.354879 7.246955 10.382345 -1.074686 6.811089 2.528823 -0.893890 -1.240000 -1.075150 17.649778 -9.814971 2.772797 -1.659930 -2.517257 13.976212 -2.950687 -5.918206 17.760224 -0.529788 -5.604868 2.785836 -0.358330 1.524260 -0.067820 -1.780680 -5.933936 -7.890379 -10.660132 4.837633 29.198445 5.622291 5.151212 5.186722 1.993882 -11.723103 -18.567956 -30.442707 8.271469 30.821070 9.423920 -6.039930 -7.843480 6.733860 -10.442564 14.403918 -28.918466 1.322631 -5.869208 106.524759 -39.391233 -63.974759 -4.456359 1.759175 1.068270 0.495060 -0.571930 0.120510 -6.813762 22.316951 8.481992 0.834963 -4.162695 -19.396478 -140.528549 -11.592523 9.136906 1.767085 -2.064429 -1.267920 1.264710 1.181890 -0.049530 
-1.910080 18.606320 2.350010 -6.648647 -4.922152 -17.500023 -15.548628 14.331411 3.195390 23.236497 2.204013 -6.011352 -7.221791 6.992162 8.692210 -1.025153 6.577397 2.612909 -0.880010 -1.200080 -1.047780 17.783698 -10.066501 2.842360 -1.271730 -2.590358 12.860166 -0.081311 -6.664148 18.175162 -0.562328 -5.576127 2.829950 -0.383860 1.461210 -0.116010 -2.241024 -4.922638 -7.964710 -7.277916 3.632352 30.784689 1.140823 5.300928 5.198463 2.817126 -12.384178 -19.050467 -31.713299 7.816142 31.500979 11.383920 -6.894490 -11.149050 2.799654 -13.105242 12.384916 -19.074121 2.396001 -6.403154 108.540028 -38.410222 -62.344038 -4.380201 1.616216 1.104460 0.419520 -0.511680 0.124670 -4.672448 26.232124 10.319653 -2.849966 -8.023541 -20.158258 -133.380816 -10.207663 3.755967 1.942058 -1.823107 -1.242400 1.286320 1.128030 -0.041010 
-1.911710 18.643800 2.284130 -7.023659 -2.995144 -18.341913 -15.400294 14.024257 3.046178 22.537892 2.453576 -5.143172 -7.224771 6.808886 8.060735 -0.993675 6.441123 2.736705 -0.888010 -1.135840 -1.108780 17.935001 -10.363056 2.916549 -2.022757 -2.650270 13.479259 1.496524 -7.045645 16.941776 -0.583718 -5.734220 2.823219 -0.341400 1.526350 -0.140130 -2.691365 -3.930644 -7.800564 -6.000952 3.411664 32.736675 -2.731010 6.400760 10.628835 2.118449 -13.054467 -17.768745 -28.971640 4.623101 27.085273 11.918630 -8.007500 -15.499060 3.752863 -15.359758 10.359525 -11.274665 -0.559842 -8.965748 106.800347 -34.580236 -56.648068 -4.466327 1.653985 1.027340 0.453600 -0.537000 0.168480 -5.362563 29.217727 11.140132 -7.727174 -9.459476 -22.077534 -122.678504 -10.745034 0.802849 2.228677 -1.678611 -1.240360 1.355420 1.104670 0.020510 
